<svg width="46" height="46" viewBox="0 0 46 46" fill="none" xmlns="http://www.w3.org/2000/svg">
    <circle cx="23.3015" cy="23.1483" r="22.6951" fill="white"/>
    <g clip-path="url(#clip0_1_1401)">
        <path d="M28.2064 10.8551C26.9461 10.9423 25.473 11.749 24.6146 12.7995C23.8315 13.7525 23.1873 15.168 23.4384 16.5436C24.8155 16.5864 26.2384 15.7605 27.0628 14.6922C27.8341 13.6979 28.4177 12.2913 28.2064 10.8551Z" fill="#A8A8A8"/>
        <path d="M33.187 18.7865C31.9769 17.269 30.2763 16.3884 28.6702 16.3884C26.5499 16.3884 25.6531 17.4035 24.18 17.4035C22.6611 17.4035 21.5071 16.3914 19.6735 16.3914C17.8724 16.3914 15.9545 17.4921 14.7385 19.3745C13.029 22.0252 13.3216 27.0089 16.092 31.2539C17.0834 32.7728 18.4073 34.4808 20.1389 34.4956C21.68 34.5104 22.1144 33.5071 24.2021 33.4968C26.2899 33.485 26.6859 34.5089 28.224 34.4927C29.9571 34.4794 31.3534 32.5866 32.3448 31.0677C33.0555 29.9788 33.32 29.4306 33.8711 28.2013C29.8626 26.675 29.2199 20.9747 33.187 18.7865Z" fill="#A8A8A8"/>
    </g>
    <defs>
        <clipPath id="clip0_1_1401">
            <rect width="23.6407" height="23.6407" fill="white" transform="translate(11.9541 10.8551)"/>
        </clipPath>
    </defs>
</svg>
