<svg width="46" height="46" viewBox="0 0 46 46" fill="none" xmlns="http://www.w3.org/2000/svg">
    <circle cx="23.0867" cy="23.1482" r="22.6951" fill="white"/>
    <g clip-path="url(#clip0_1_1392)">
        <path d="M34.4875 20.6202L24.8447 20.6197C24.4189 20.6197 24.0737 20.9648 24.0737 21.3906V24.471C24.0737 24.8968 24.4189 25.242 24.8446 25.242H30.2749C29.6803 26.7851 28.5704 28.0774 27.1545 28.8986L29.4699 32.9068C33.1842 30.7587 35.3801 26.9897 35.3801 22.7704C35.3801 22.1697 35.3358 21.7402 35.2473 21.2566C35.18 20.8892 34.861 20.6202 34.4875 20.6202Z" fill="#167EE6"/>
        <path d="M23.5591 29.8705C20.9017 29.8705 18.5817 28.4185 17.3357 26.2699L13.3276 28.5802C15.3673 32.1153 19.1884 34.4958 23.5591 34.4958C25.7033 34.4958 27.7264 33.9185 29.4693 32.9125V32.907L27.1538 28.8987C26.0947 29.513 24.8691 29.8705 23.5591 29.8705Z" fill="#12B347"/>
        <path d="M29.4707 32.9124V32.9069L27.1553 28.8986C26.0961 29.5128 24.8706 29.8704 23.5605 29.8704V34.4957C25.7047 34.4957 27.728 33.9184 29.4707 32.9124Z" fill="#0F993E"/>
        <path d="M16.3656 22.6754C16.3656 21.3655 16.7231 20.1401 17.3372 19.081L13.3291 16.7708C12.3175 18.5081 11.7402 20.5258 11.7402 22.6754C11.7402 24.8251 12.3175 26.8427 13.3291 28.5801L17.3372 26.2699C16.7231 25.2108 16.3656 23.9853 16.3656 22.6754Z" fill="#FFD500"/>
        <path d="M23.5591 15.4804C25.292 15.4804 26.8838 16.0962 28.1271 17.1205C28.4339 17.3731 28.8797 17.3549 29.1606 17.0739L31.3432 14.8913C31.662 14.5725 31.6393 14.0507 31.2988 13.7553C29.2157 11.9481 26.5053 10.8551 23.5591 10.8551C19.1884 10.8551 15.3673 13.2356 13.3276 16.7708L17.3357 19.081C18.5817 16.9324 20.9017 15.4804 23.5591 15.4804Z" fill="#FE724C"/>
        <path d="M28.1286 17.1205C28.4353 17.3731 28.8811 17.3549 29.1621 17.0739L31.3447 14.8913C31.6634 14.5725 31.6407 14.0507 31.3002 13.7553C29.2171 11.9481 26.5067 10.8551 23.5605 10.8551V15.4804C25.2934 15.4804 26.8853 16.0962 28.1286 17.1205Z" fill="#D93F21"/>
    </g>
    <defs>
        <clipPath id="clip0_1_1392">
            <rect width="23.6407" height="23.6407" fill="white" transform="translate(11.7395 10.8551)"/>
        </clipPath>
    </defs>
</svg>
